<?xml version="1.0" encoding="utf-8"?>
<!-- Generator: Adobe Illustrator 16.0.0, SVG Export Plug-In . SVG Version: 6.00 Build 0)  -->
<!DOCTYPE svg PUBLIC "-//W3C//DTD SVG 1.1//EN" "http://www.w3.org/Graphics/SVG/1.1/DTD/svg11.dtd">
<svg version="1.1" id="Layer_1" xmlns="http://www.w3.org/2000/svg" xmlns:xlink="http://www.w3.org/1999/xlink" x="0px" y="0px"
	 width="12px" height="23px" viewBox="0 0 12 23" enable-background="new 0 0 12 23" xml:space="preserve">
<polygon fill="#B1D235" points="12,11 11,11 11,10 10,10 10,9 9,9 9,8 8,8 8,7 7,7 7,6 6,6 6,5 5,5 5,4 4,4 4,3 3,3 3,2 2,2 2,1 
	1,1 1,0 0,0 0,23 1,23 1,22 2,22 2,21 3,21 3,20 4,20 4,19.002 4.999,19.002 4.999,18.375 5,18 6,18 6,17.001 7,17.001 7,16.001 
	7.999,16.001 8,15.001 9,15.001 9,14.001 9,14 10,14 10,13 10.999,13 11,12 12,12 "/>
<g>
</g>
<g>
</g>
<g>
</g>
<g>
</g>
<g>
</g>
<g>
</g>
</svg>
