<?xml version="1.0" encoding="utf-8"?>
<!-- Generator: Adobe Illustrator 16.0.0, SVG Export Plug-In . SVG Version: 6.00 Build 0)  -->
<!DOCTYPE svg PUBLIC "-//W3C//DTD SVG 1.1 Tiny//EN" "http://www.w3.org/Graphics/SVG/1.1/DTD/svg11-tiny.dtd">
<svg version="1.1" baseProfile="tiny" id="Layer_1" xmlns="http://www.w3.org/2000/svg" xmlns:xlink="http://www.w3.org/1999/xlink"
	 x="0px" y="0px" width="91px" height="13px" viewBox="0 0 91 13" xml:space="preserve">
<path fill-rule="evenodd" fill="#DCDCDC" d="M52,5.37V4c0-2.21-1.791-4-4-4h-5c-2.209,0-4,1.79-4,4v1.37H0v2h39V9
	c0,2.209,1.791,4,4,4h5c2.209,0,4-1.791,4-4V7.37h39v-2H52z M50,9c0,1.103-0.897,2-2,2h-5c-1.103,0-2-0.897-2-2V4
	c0-1.103,0.897-2,2-2h5c1.103,0,2,0.897,2,2V9z"/>
<g>
</g>
<g>
</g>
<g>
</g>
<g>
</g>
<g>
</g>
<g>
</g>
</svg>
