<?xml version="1.0" encoding="utf-8"?>
<!-- Generator: Adobe Illustrator 16.0.0, SVG Export Plug-In . SVG Version: 6.00 Build 0)  -->
<!DOCTYPE svg PUBLIC "-//W3C//DTD SVG 1.1//EN" "http://www.w3.org/Graphics/SVG/1.1/DTD/svg11.dtd">
<svg version="1.1" id="Layer_1" xmlns="http://www.w3.org/2000/svg" xmlns:xlink="http://www.w3.org/1999/xlink" x="0px" y="0px"
	 width="13px" height="23px" viewBox="0 0 13 23" enable-background="new 0 0 13 23" xml:space="preserve">
<g>
	<rect x="1" fill="#B3D734" width="1" height="1"/>
	<rect y="1" fill="#B3D734" width="1" height="1"/>
	<rect x="2" y="1" fill="#B3D734" width="1" height="1"/>
	<rect x="1" y="2" fill="#B3D734" width="1" height="1"/>
	<rect x="3" y="2" fill="#B3D734" width="1" height="1"/>
	<rect x="2" y="3" fill="#B3D734" width="1" height="1"/>
	<rect x="4" y="3" fill="#B3D734" width="1" height="1"/>
	<rect x="3" y="4" fill="#B3D734" width="1" height="1"/>
	<rect x="5" y="4" fill="#B3D734" width="1" height="1"/>
	<rect x="4" y="5" fill="#B3D734" width="1" height="1"/>
	<rect x="6" y="5" fill="#B3D734" width="1" height="1"/>
	<rect x="5" y="6" fill="#B3D734" width="1" height="1"/>
	<rect x="7" y="6" fill="#B3D734" width="1" height="1"/>
	<rect x="6" y="7" fill="#B3D734" width="1" height="1"/>
	<rect x="8" y="7" fill="#B3D734" width="1" height="1"/>
	<rect x="7" y="8" fill="#B3D734" width="1" height="1"/>
	<rect x="9" y="8" fill="#B3D734" width="1" height="1"/>
	<rect x="8" y="9" fill="#B3D734" width="1" height="1"/>
	<rect x="10" y="9" fill="#B3D734" width="1" height="1"/>
	<rect x="9" y="10" fill="#B3D734" width="1" height="1"/>
	<rect x="11" y="10" fill="#B3D734" width="1" height="1"/>
	<rect x="10" y="11" fill="#B3D734" width="1" height="1"/>
	<rect x="12" y="11" fill="#B3D734" width="1" height="1"/>
	<rect x="11" y="12" fill="#B3D734" width="1" height="1"/>
	<rect x="1" y="1" fill="#B3D734" width="1" height="1"/>
	<rect x="2" y="2" fill="#B3D734" width="1" height="1"/>
	<rect x="3" y="3" fill="#B3D734" width="1" height="1"/>
	<rect x="4" y="4" fill="#B3D734" width="1" height="1"/>
	<rect x="5" y="5" fill="#B3D734" width="1" height="1"/>
	<rect x="6" y="6" fill="#B3D734" width="1" height="1"/>
	<rect x="7" y="7" fill="#B3D734" width="1" height="1"/>
	<rect x="8" y="8" fill="#B3D734" width="1" height="1"/>
	<rect x="9" y="9" fill="#B3D734" width="1" height="1"/>
	<rect x="10" y="10" fill="#B3D734" width="1" height="1"/>
	<rect x="11" y="11" fill="#B3D734" width="1" height="1"/>
	<rect y="21" fill="#B3D734" width="1" height="1"/>
	<rect x="1" y="22" fill="#B3D734" width="1" height="1"/>
	<rect x="1" y="20" fill="#B3D734" width="1" height="1"/>
	<rect x="2" y="21" fill="#B3D734" width="1" height="1"/>
	<rect x="2" y="19" fill="#B3D734" width="1" height="1"/>
	<rect x="3" y="20" fill="#B3D734" width="1" height="1"/>
	<rect x="3" y="18" fill="#B3D734" width="1" height="1"/>
	<rect x="4" y="19" fill="#B3D734" width="1" height="1"/>
	<rect x="4" y="17" fill="#B3D734" width="1" height="1"/>
	<rect x="5" y="18" fill="#B3D734" width="1" height="1"/>
	<rect x="5" y="16" fill="#B3D734" width="1" height="1"/>
	<rect x="6" y="17" fill="#B3D734" width="1" height="1"/>
	<rect x="6" y="15" fill="#B3D734" width="1" height="1"/>
	<rect x="7" y="16" fill="#B3D734" width="1" height="1"/>
	<rect x="7" y="14" fill="#B3D734" width="1" height="1"/>
	<rect x="8" y="15" fill="#B3D734" width="1" height="1"/>
	<rect x="8" y="13" fill="#B3D734" width="1" height="1"/>
	<rect x="9" y="14" fill="#B3D734" width="1" height="1"/>
	<rect x="9" y="12" fill="#B3D734" width="1" height="1"/>
	<rect x="10" y="13" fill="#B3D734" width="1" height="1"/>
	<rect x="1" y="21" fill="#B3D734" width="1" height="1"/>
	<rect x="2" y="20" fill="#B3D734" width="1" height="1"/>
	<rect x="3" y="19" fill="#B3D734" width="1" height="1"/>
	<rect x="4" y="18" fill="#B3D734" width="1" height="1"/>
	<rect x="5" y="17" fill="#B3D734" width="1" height="1"/>
	<rect x="6" y="16" fill="#B3D734" width="1" height="1"/>
	<rect x="7" y="15" fill="#B3D734" width="1" height="1"/>
	<rect x="8" y="14" fill="#B3D734" width="1" height="1"/>
	<rect x="9" y="13" fill="#B3D734" width="1" height="1"/>
	<rect x="10" y="12" fill="#B3D734" width="1" height="1"/>
</g>
</svg>
