<?xml version="1.0" encoding="utf-8"?>
<!-- Generator: Adobe Illustrator 16.0.0, SVG Export Plug-In . SVG Version: 6.00 Build 0)  -->
<!DOCTYPE svg PUBLIC "-//W3C//DTD SVG 1.1 Tiny//EN" "http://www.w3.org/Graphics/SVG/1.1/DTD/svg11-tiny.dtd">
<svg version="1.1" baseProfile="tiny" id="Layer_1" xmlns="http://www.w3.org/2000/svg" xmlns:xlink="http://www.w3.org/1999/xlink"
	 x="0px" y="0px" width="9px" height="5px" viewBox="0 0 9 5" xml:space="preserve">
<polygon fill="#43474D" points="8,0 7,0 7,1 6,1 6,2 5,2 5,3 4,3 4,2 3,2 3,1 2,1 2,0 1,0 0,0 0,1 1,1 1,2 2,2 2,3 3,3 3,4 4,4 4,5 
	5,5 5,4 6,4 6,3 7,3 7,2 8,2 8,1 9,1 9,0 "/>
<g>
</g>
<g>
</g>
<g>
</g>
<g>
</g>
<g>
</g>
<g>
</g>
</svg>
