<?xml version="1.0" encoding="utf-8"?>
<!-- Generator: Adobe Illustrator 16.0.0, SVG Export Plug-In . SVG Version: 6.00 Build 0)  -->
<!DOCTYPE svg PUBLIC "-//W3C//DTD SVG 1.1//EN" "http://www.w3.org/Graphics/SVG/1.1/DTD/svg11.dtd">
<svg version="1.1" id="Layer_1" xmlns="http://www.w3.org/2000/svg" xmlns:xlink="http://www.w3.org/1999/xlink" x="0px" y="0px"
	 width="23px" height="23px" viewBox="0 0 23 23" enable-background="new 0 0 23 23" xml:space="preserve">
<path fill="#B2D231" d="M20.001,2c0.552,0,1,0.449,1,1v17c0,0.552-0.448,1-1,1H3c-0.551,0-1-0.448-1-1V3c0-0.551,0.449-1,1-1H20.001
	 M20.001,0H3C1.343,0,0,1.344,0,3v17c0,1.658,1.343,3,3,3h17.001c1.656,0,3-1.342,3-3V3C23.001,1.344,21.657,0,20.001,0L20.001,0z"
	/>
</svg>
