<?xml version="1.0" encoding="utf-8"?>
<!-- Generator: Adobe Illustrator 16.0.0, SVG Export Plug-In . SVG Version: 6.00 Build 0)  -->
<!DOCTYPE svg PUBLIC "-//W3C//DTD SVG 1.1//EN" "http://www.w3.org/Graphics/SVG/1.1/DTD/svg11.dtd">
<svg version="1.1" id="Layer_1" xmlns="http://www.w3.org/2000/svg" xmlns:xlink="http://www.w3.org/1999/xlink" x="0px" y="0px"
	 width="13px" height="13px" viewBox="0 0 13 13" enable-background="new 0 0 13 13" xml:space="preserve">
<rect x="1" fill-rule="evenodd" clip-rule="evenodd" fill="#EB0000" width="1" height="1"/>
<rect x="11" y="10" fill-rule="evenodd" clip-rule="evenodd" fill="#EB0000" width="1" height="1"/>
<rect x="12" y="11" fill-rule="evenodd" clip-rule="evenodd" fill="#EB0000" width="1" height="1"/>
<rect x="10" y="9" fill-rule="evenodd" clip-rule="evenodd" fill="#EB0000" width="1" height="1"/>
<rect x="9" y="8" fill-rule="evenodd" clip-rule="evenodd" fill="#EB0000" width="1" height="1"/>
<rect x="8" y="7" fill-rule="evenodd" clip-rule="evenodd" fill="#EB0000" width="1" height="1"/>
<rect x="6" y="5" fill-rule="evenodd" clip-rule="evenodd" fill="#EB0000" width="1" height="1"/>
<rect x="7" y="6" fill-rule="evenodd" clip-rule="evenodd" fill="#EB0000" width="1" height="1"/>
<rect x="5" y="4" fill-rule="evenodd" clip-rule="evenodd" fill="#EB0000" width="1" height="1"/>
<rect x="4" y="3" fill-rule="evenodd" clip-rule="evenodd" fill="#EB0000" width="1" height="1"/>
<rect x="3" y="2" fill-rule="evenodd" clip-rule="evenodd" fill="#EB0000" width="1" height="1"/>
<rect x="2" y="1" fill-rule="evenodd" clip-rule="evenodd" fill="#EB0000" width="1" height="1"/>
<rect y="1" fill-rule="evenodd" clip-rule="evenodd" fill="#EB0000" width="1" height="1"/>
<rect x="10" y="11" fill-rule="evenodd" clip-rule="evenodd" fill="#EB0000" width="1" height="1"/>
<rect x="11" y="12" fill-rule="evenodd" clip-rule="evenodd" fill="#EB0000" width="1" height="1"/>
<rect x="9" y="10" fill-rule="evenodd" clip-rule="evenodd" fill="#EB0000" width="1" height="1"/>
<rect x="8" y="9" fill-rule="evenodd" clip-rule="evenodd" fill="#EB0000" width="1" height="1"/>
<rect x="7" y="8" fill-rule="evenodd" clip-rule="evenodd" fill="#EB0000" width="1" height="1"/>
<rect x="5" y="6" fill-rule="evenodd" clip-rule="evenodd" fill="#EB0000" width="1" height="1"/>
<rect x="6" y="7" fill-rule="evenodd" clip-rule="evenodd" fill="#EB0000" width="1" height="1"/>
<rect x="4" y="5" fill-rule="evenodd" clip-rule="evenodd" fill="#EB0000" width="1" height="1"/>
<rect x="3" y="4" fill-rule="evenodd" clip-rule="evenodd" fill="#EB0000" width="1" height="1"/>
<rect x="2" y="3" fill-rule="evenodd" clip-rule="evenodd" fill="#EB0000" width="1" height="1"/>
<rect x="1" y="2" fill-rule="evenodd" clip-rule="evenodd" fill="#EB0000" width="1" height="1"/>
<rect y="11" fill-rule="evenodd" clip-rule="evenodd" fill="#EB0000" width="1" height="1"/>
<rect x="10" y="1" fill-rule="evenodd" clip-rule="evenodd" fill="#EB0000" width="1" height="1"/>
<rect x="11" fill-rule="evenodd" clip-rule="evenodd" fill="#EB0000" width="1" height="1"/>
<rect x="9" y="2" fill-rule="evenodd" clip-rule="evenodd" fill="#EB0000" width="1" height="1"/>
<rect x="8" y="3" fill-rule="evenodd" clip-rule="evenodd" fill="#EB0000" width="1" height="1"/>
<rect x="7" y="4" fill-rule="evenodd" clip-rule="evenodd" fill="#EB0000" width="1" height="1"/>
<rect x="5" y="6" fill-rule="evenodd" clip-rule="evenodd" fill="#EB0000" width="1" height="1"/>
<rect x="6" y="5" fill-rule="evenodd" clip-rule="evenodd" fill="#EB0000" width="1" height="1"/>
<rect x="4" y="7" fill-rule="evenodd" clip-rule="evenodd" fill="#EB0000" width="1" height="1"/>
<rect x="3" y="8" fill-rule="evenodd" clip-rule="evenodd" fill="#EB0000" width="1" height="1"/>
<rect x="2" y="9" fill-rule="evenodd" clip-rule="evenodd" fill="#EB0000" width="1" height="1"/>
<rect x="1" y="10" fill-rule="evenodd" clip-rule="evenodd" fill="#EB0000" width="1" height="1"/>
<rect x="1" y="12" fill-rule="evenodd" clip-rule="evenodd" fill="#EB0000" width="1" height="1"/>
<rect x="11" y="2" fill-rule="evenodd" clip-rule="evenodd" fill="#EB0000" width="1" height="1"/>
<rect x="12" y="1" fill-rule="evenodd" clip-rule="evenodd" fill="#EB0000" width="1" height="1"/>
<rect x="10" y="3" fill-rule="evenodd" clip-rule="evenodd" fill="#EB0000" width="1" height="1"/>
<rect x="9" y="4" fill-rule="evenodd" clip-rule="evenodd" fill="#EB0000" width="1" height="1"/>
<rect x="8" y="5" fill-rule="evenodd" clip-rule="evenodd" fill="#EB0000" width="1" height="1"/>
<rect x="6" y="7" fill-rule="evenodd" clip-rule="evenodd" fill="#EB0000" width="1" height="1"/>
<rect x="7" y="6" fill-rule="evenodd" clip-rule="evenodd" fill="#EB0000" width="1" height="1"/>
<rect x="5" y="8" fill-rule="evenodd" clip-rule="evenodd" fill="#EB0000" width="1" height="1"/>
<rect x="4" y="9" fill-rule="evenodd" clip-rule="evenodd" fill="#EB0000" width="1" height="1"/>
<rect x="3" y="10" fill-rule="evenodd" clip-rule="evenodd" fill="#EB0000" width="1" height="1"/>
<rect x="2" y="11" fill-rule="evenodd" clip-rule="evenodd" fill="#EB0000" width="1" height="1"/>
<g>
</g>
<g>
</g>
<g>
</g>
<g>
</g>
<g>
</g>
<g>
</g>
</svg>
