<?xml version="1.0" encoding="utf-8"?>
<!-- Generator: Adobe Illustrator 16.0.0, SVG Export Plug-In . SVG Version: 6.00 Build 0)  -->
<!DOCTYPE svg PUBLIC "-//W3C//DTD SVG 1.1 Tiny//EN" "http://www.w3.org/Graphics/SVG/1.1/DTD/svg11-tiny.dtd">
<svg version="1.1" baseProfile="tiny" id="Layer_1" xmlns="http://www.w3.org/2000/svg" xmlns:xlink="http://www.w3.org/1999/xlink"
	 x="0px" y="0px" width="17px" height="17px" viewBox="0 0 17 17" xml:space="preserve">
<path fill="#43474D" d="M17,0v0.219V1v5h-1V5h-1V4h-1v1h-1v1h-1v1h-1v1h-1V7H9V6h1V5h1V4h1V3h1V2h-1V1h-1V0H17z M6,17v-1H5v-1H4v-1
	h1v-1h1v-1h1v-1h1v-1H7V9H6v1H5v1H4v1H3v1H2v-1H1v-1H0v5v0.781V17H6z"/>
<g>
</g>
<g>
</g>
<g>
</g>
<g>
</g>
<g>
</g>
<g>
</g>
</svg>
